<?xml version="1.0" encoding="utf-8"?>
<!-- Generator: Adobe Illustrator 22.1.0, SVG Export Plug-In . SVG Version: 6.00 Build 0)  -->
<svg version="1.1" id="Layer_1" xmlns="http://www.w3.org/2000/svg" xmlns:xlink="http://www.w3.org/1999/xlink" x="0px" y="0px"
	 viewBox="0 0 94 96.6" style="enable-background:new 0 0 94 96.6;" xml:space="preserve">
<style type="text/css">
	.st0{fill:#DDDCDC;}
	.st1{fill:#264B6E;}
</style>
<path class="st0" d="M80,49.4c0.4,7.6-2.9,12.8-8.4,16.1c-2.5,1.5-5.9-0.9-9.2-0.1C58.9,66.1,46.9,81.6,43,81.6
	c-16.1,0-27.7-17.7-27.7-32.4c0-1.6,7.4-9.1,7.7-10.6c2.6-12.7,14.9-23.4,29.2-23.4C68.2,15.2,79.2,35.3,80,49.4z"/>
<g>
	<path class="st1" d="M82.1,26.6c-0.3-1.2-0.9-2.3-1.8-3.1c-2.4-2.3-5.5-5-6.7-5.2c-0.6-0.2-4.4,0.8-6.4-0.3
		c-6.1-2.9-9.8-2.5-14.5-2.9C48,14.8,41.8,16.9,39.3,18c-3.4,1.7-8.5-2.6-12-1.8c-3.5,0.8-5.5,5.3-7.9,7.7c-2.1,2.4-5.6,4.3-7,6.2
		c0,0,0,0,0,0.1c-0.3,4,6.3,7.5,8.7,7.9c0.1,0,0.1,0.2,0,0.2c-3.1,1-5.1,3.4-6.6,7.8c-5.6,17.1,12.2,43,37,43.1
		c10.9,0,16.9-6.4,16.4-15.7c0-0.3-0.4-0.4-0.6-0.1c-2.1,2.6-4.2,4.2-7.1,5.6c-0.1,0.1-0.2-0.1-0.1-0.2c4.1-2.6,7.1-5.9,9.6-9.6
		c0.2-0.3,0-0.7-0.3-0.8c-1-0.2-1.9-0.6-2.5-0.9c-0.1-0.1,0-0.2,0.1-0.2c0.9,0.2,2.6,0.5,3.6,0.3c0.7-0.1,1.3-0.2,1.8-0.3
		c1.6-0.4,3.2-1,4.2-2.3c0-0.1,0.1,0,0.2,0c1.4,1,2.1,1.4,4.3,1.2c2.5-0.3,3.2-3.9,0.8-5.7c-2.9-2.2-0.4-6.4-1.3-13.4
		c-0.4-3-1.5-6.4-2.7-9.2c0-0.1-0.2-0.6-0.1-0.6c2,0.6,5.1,3.2,6,1.1C84.5,36.4,82.9,29.8,82.1,26.6z M43.2,79.9
		c-5.9,0.2-13.7-2.9-18.1-9c-6.1-8.4-6.9-17.2-7-20.7c0-0.8,0.2-1.8,0.6-2.5l0,0c1-1.3,1.4-0.6,1.8,1.4c0,0.2,0.3,0.2,0.4,0
		c0.7-1.8,1.9-4.1,3.2-5.6c0.2-0.2,0.5,0,0.5,0.2c-1.3,4.2-3.2,9.5,0.6,17.4l0,0c2.9,4.5,5.1,7.5,10,8.6c5.1,1.5,2.9,3.4,2.5,3.6
		c-1.4,1-2.7,0.8-4.1,0.4c-0.3-0.1-0.5,0.2-0.3,0.4c1.5,2.3,6.7,4.6,10,5.5C43.3,79.7,43.3,79.9,43.2,79.9z M69.2,42
		c-0.9-0.4-2.6-0.9-4.6-0.2c-1,0.4-2.3,1.2-3.1,1.9c-0.1,0.1-0.2-0.1-0.2-0.2c1.2-1.4,1.8-2.9,4.1-3.2c1.7-0.3,3.2,0.8,3.9,1.5
		C69.4,41.9,69.3,42.1,69.2,42z M79.6,47.3c0,0.1-0.1,0.2-0.2,0.1c-3.4-6.5-6.7-9.4-13.5-9.6c-1.1,0-0.9-1-0.5-1.1
		c2.1-0.5,2.5-2.4,2.6-3.5c0-0.2-0.1-0.4-0.2-0.4c-3.5-1.3-7.9-1.5-11,0.6c-0.2,0.1-0.3,0.4-0.2,0.6c0.6,0.9,3.2,3,6.9,3
		c0.8,0,1,1.1,0,1.2c-2.2,0.3-5.9,2.3-7.8,4.8c-4,5.3-1.6,10.4-5.5,13.4c-3,2.3-4.6,1.4-5.3,4c-0.4,1.2,0.6,2.5,1.8,3
		c0.9,0.4,3.5,0.6,4.6,0.6c0.1,0,0.1,0.2,0,0.2c-1.2,0.4-3.8,0.9-6,0.2c-3.3-1.1-6.9-5-6.2-11.1c1.4-11.9,9.5-19.8,19.4-23.3
		c0.1,0,0.1-0.1,0-0.2c-2.2-2.2-4.6-5.2-8.5-5.1c-3.4,0.1-7.6,3.1-11,10.6c0,0.1-0.1,0.1-0.2,0c-0.5-0.8-0.3-5.9,3.5-10.3
		c0.2-0.3,2.4-3.6-0.2-3.8C42,21.2,42,21.1,42,21c0.5-0.6,1.5-1.2,2.1-1.5c0.1-0.1,0-0.2-0.1-0.2c-2.9,0.6-6.3,2.9-9,5.7
		c-0.1,0.1-0.2,0-0.2-0.1c2.5-3.6,5.2-6.2,13.6-8.7c4.9-1.2,10.1,0.5,14.3,3.3c0.1,0.1,0,0.2-0.1,0.2c-2.4-0.6-4.5-0.9-5-0.1
		c-0.7,1.3,1.8,2.6,7.2,3.3c2.6,0.4,4.9,1.9,6.3,5.3c0,0.1-0.1,0.2-0.2,0.1c-1.7-2.2-3.4-3.2-6-3.2c-1.9,0-3,2.2-3.4,4.2
		c0,0.1,0,0.1,0.1,0.1C74.8,31.3,78.3,39.1,79.6,47.3z M45.6,31.4c0.1,0,0.1,0,0.2,0.1c0.4,0.6,2.1,0.9,3.9,0.6
		c0.7-0.1,1.4-0.3,1.9-0.6c0,0,0.1,0.1,0,0.1c-0.7,0.7-1.8,1.4-3.3,1.7c-2,0.4-3.8,0.3-4-0.5C44.3,32.4,44.8,31.8,45.6,31.4z
		 M71,30.2c-0.1,0.3-0.5,0.4-1.3,0.2c-0.9-0.1-1.4-0.4-1.8-0.7l0,0c0.2,0.1,0.5,0.2,0.8,0.2c0.8,0.1,1.5,0,1.7-0.2h0.1
		C70.8,29.8,71,30,71,30.2z"/>
</g>
</svg>
