<?xml version="1.0" encoding="utf-8"?>
<!-- Generator: Adobe Illustrator 18.0.0, SVG Export Plug-In . SVG Version: 6.00 Build 0)  -->
<!DOCTYPE svg PUBLIC "-//W3C//DTD SVG 1.1//EN" "http://www.w3.org/Graphics/SVG/1.1/DTD/svg11.dtd">
<svg version="1.1" id="Layer_1" xmlns="http://www.w3.org/2000/svg" xmlns:xlink="http://www.w3.org/1999/xlink" x="0px" y="0px"
	 viewBox="0 0 282 96.6" enable-background="new 0 0 282 96.6" xml:space="preserve">
<path fill="#DDDCDC" d="M80,49.4c0.4,7.6-2.9,12.8-8.4,16.1c-2.5,1.5-5.9-0.9-9.2-0.1C58.9,66.1,46.9,81.6,43,81.6
	c-16.1,0-27.7-17.7-27.7-32.4c0-1.6,7.4-9.1,7.7-10.6c2.6-12.7,14.9-23.4,29.2-23.4C68.2,15.2,79.2,35.3,80,49.4z"/>
<g>
	<g>
		<path fill="#264B6E" d="M92.5,41.5l9.2,0l0,4.2c-1.1,0.6-1.9,1.4-2.6,2.4c-1,1.6-1.7,3.5-2,5.6l-0.3,2.1c-0.1,0.7-0.4,1.2-0.8,1.6
			c-0.4,0.4-0.9,0.6-1.5,0.6c-0.6,0-1.1-0.2-1.5-0.6c-0.4-0.4-0.6-1-0.6-1.6L92.5,41.5z M120.1,41.5l0,41.2c0,0.9,0.2,1.6,0.5,2
			c0.2,0.2,0.4,0.4,0.5,0.4c0.2,0.1,0.7,0.2,1.6,0.4c1.1,0.3,1.7,0.9,1.7,1.9c0,0.6-0.3,1.1-0.9,1.5c-0.4,0.3-1.2,0.4-2.2,0.4
			l-1.2,0l-15.6,0l-1.2,0c-1,0-1.8-0.2-2.3-0.5c-0.5-0.3-0.8-0.8-0.8-1.4c0-1,0.6-1.7,1.7-1.9c0.9-0.2,1.4-0.4,1.6-0.4
			c0.2-0.1,0.3-0.2,0.5-0.4c0.4-0.4,0.5-1.1,0.5-2l0-41.2L120.1,41.5z M132.2,41.5l0,14.3c0,0.7-0.2,1.2-0.6,1.6
			c-0.4,0.4-0.9,0.6-1.5,0.6c-0.6,0-1.1-0.2-1.5-0.6c-0.4-0.4-0.6-0.9-0.8-1.6l-0.4-2.1c-0.4-2.2-1-4.1-2-5.6
			c-0.6-1-1.5-1.8-2.6-2.4l0-4.2L132.2,41.5z"/>
		<path fill="#264B6E" d="M143.8,50.4l1.8,7.3l-6.2,22.6c-0.2,0.7-0.3,1.3-0.3,1.8c0,1.5,0.7,2.5,2.1,3.2l1.2,0.6
			c0.8,0.3,1.2,0.9,1.2,1.8c0,1.2-0.9,1.8-2.6,1.8l-8.9,0c-0.9,0-1.5-0.2-2-0.5c-0.5-0.4-0.8-0.9-0.8-1.5c0-0.7,0.5-1.2,1.5-1.7
			c1-0.4,1.7-0.8,2.1-1.1c0.5-0.3,0.9-0.8,1.3-1.4c0.7-1,1.2-2.2,1.6-3.8L143.8,50.4z M146.3,41.5l14.1,0l9.8,41.2
			c0.2,0.7,0.4,1.4,0.6,1.9c0.2,0.4,0.7,0.8,1.4,1.1c0.6,0.3,1,0.5,1.3,0.8c0.2,0.3,0.4,0.6,0.4,1.1c0,1.2-0.9,1.8-2.7,1.8l-17.5,0
			c-0.7,0-1.3-0.2-1.7-0.5c-0.4-0.3-0.6-0.8-0.6-1.3c0-0.5,0.1-0.8,0.3-1.1c0.2-0.2,0.6-0.5,1.3-0.9c0.5-0.2,0.8-0.5,1-0.8
			c0.2-0.3,0.3-0.6,0.3-1.1c0-0.4,0-0.7-0.1-1.1l-1.1-5.1l-9.8,0l0.9-4.2l7.8,0l-6.5-28.5L146.3,41.5z"/>
		<path fill="#264B6E" d="M181.8,53.7l3.7,6.2l0,18.8c0,1.6,0.3,3,0.8,4c0.5,1.1,1.4,1.9,2.6,2.6l1.1,0.6c0.6,0.3,0.9,0.9,0.9,1.6
			c0,0.5-0.2,1-0.7,1.3c-0.4,0.3-1.1,0.5-2.3,0.5l-8.1,0c-2.1,0-3.2-0.6-3.2-1.8c0-0.4,0.1-0.8,0.3-1c0.2-0.2,0.7-0.6,1.5-1
			c2.2-1.2,3.4-3.5,3.4-6.8L181.8,53.7z M196.5,41.4l18.7,32.4l0,15.5l-9.6,0l-23.8-41c-0.5-0.9-0.9-1.5-1.3-1.9
			c-0.3-0.4-0.7-0.6-1.3-0.8l-1.3-0.5c-0.4-0.1-0.6-0.3-0.8-0.6c-0.2-0.3-0.3-0.6-0.3-1c0-0.4,0.1-0.8,0.3-1.1
			c0.2-0.3,0.5-0.6,0.8-0.7c0.4-0.2,1.5-0.2,3.2-0.2L196.5,41.4z M215.1,68.2l-3.7-6.3l0-9.7c0-2-0.3-3.5-0.9-4.5
			c-0.6-1-1.6-1.9-3-2.7c-0.5-0.2-0.8-0.5-1-0.8c-0.2-0.3-0.3-0.6-0.3-1c0-0.6,0.2-1.1,0.6-1.4c0.4-0.3,1.1-0.4,2-0.4l8.8,0
			c1.2,0,2,0.2,2.3,0.6c0.4,0.4,0.6,0.8,0.6,1.3c0,0.5-0.1,0.9-0.3,1.1c-0.2,0.2-0.8,0.6-1.6,1c-1.2,0.6-2.2,1.6-2.8,2.9
			c-0.4,1-0.7,2.3-0.7,3.9L215.1,68.2z"/>
		<path fill="#264B6E" d="M244.7,89.2l-15.6,0l-0.9,0c-0.8,0-1.5-0.2-1.9-0.5c-0.5-0.3-0.7-0.8-0.7-1.3c0-1,0.5-1.6,1.4-1.9
			c0.8-0.3,1.2-0.4,1.3-0.5c0.1-0.1,0.3-0.2,0.4-0.4c0.3-0.4,0.4-1,0.4-1.8l0-35.1c0-0.8-0.1-1.4-0.4-1.8c-0.1-0.2-0.3-0.3-0.4-0.4
			c-0.1-0.1-0.6-0.2-1.3-0.5c-0.9-0.3-1.4-0.9-1.4-1.9c0-0.6,0.2-1,0.7-1.4c0.5-0.3,1.1-0.5,1.9-0.5l0.9,0l15.6,0l0.9,0
			c0.8,0,1.5,0.2,1.9,0.5c0.5,0.3,0.7,0.8,0.7,1.3c0,1-0.5,1.6-1.4,1.9c-0.8,0.3-1.2,0.4-1.3,0.5c-0.1,0.1-0.3,0.2-0.4,0.4
			c-0.3,0.4-0.4,1-0.4,1.8l0,35.1c0,1.3,0.3,2.1,1,2.3l1.1,0.3c0.9,0.3,1.3,0.9,1.3,1.9c0,1.2-0.8,1.8-2.5,1.8L244.7,89.2z
			 M258.6,55.2l10.6,27.7c0.3,0.7,0.6,1.3,0.9,1.7c0.3,0.4,0.7,0.7,1.2,0.9c0.5,0.2,0.8,0.4,0.9,0.5c0.3,0.3,0.5,0.8,0.5,1.3
			c0,1.2-0.9,1.9-2.6,1.9l-17.6,0c-0.8,0-1.5-0.2-1.9-0.5c-0.5-0.4-0.7-0.9-0.7-1.5c0-0.7,0.4-1.3,1.3-1.8c0.5-0.3,0.9-0.5,1.1-0.6
			c0.2-0.2,0.3-0.4,0.3-0.7c0-0.2-0.1-0.5-0.3-1.1l-4.5-13.4c-0.4-1.2-0.6-2.3-0.6-3.2c0-0.8,0.3-1.7,1-2.7l8.4-11.8
			c0.8-1.1,1.2-2.2,1.2-3.4c0-0.7-0.2-1.3-0.5-1.8c-0.4-0.6-0.8-1-1.4-1.2l-1.3-0.5c-0.8-0.3-1.2-0.9-1.2-1.6c0-0.6,0.2-1.1,0.7-1.5
			c0.3-0.3,0.9-0.4,1.6-0.4l12.5,0c0.8,0,1.5,0.2,1.9,0.5c0.5,0.4,0.7,0.9,0.7,1.5c0,1-0.5,1.7-1.6,2.1l-1.9,0.7
			c-0.8,0.3-1.8,0.9-2.9,1.9c-0.9,0.7-2,2-3.3,3.8L258.6,55.2z"/>
	</g>
	<path fill="#264B6E" d="M179.2,28.6c1.1,0,2.1,0.9,2.1,2.1c0,1.2-1,2.1-2.1,2.1c-1.1,0-2.1-0.9-2.1-2.1
		C177.1,29.5,178.1,28.6,179.2,28.6z M179.2,32.4c1,0,1.7-0.8,1.7-1.8c0-1-0.7-1.8-1.7-1.8c-1,0-1.7,0.8-1.7,1.8
		C177.5,31.7,178.3,32.4,179.2,32.4z M178.4,29.5l0.9,0c0.6,0,0.9,0.2,0.9,0.7c0,0.4-0.3,0.6-0.6,0.7l0.7,1.1l-0.4,0l-0.7-1l-0.4,0
		l0,1l-0.4,0L178.4,29.5z M178.8,30.5l0.4,0c0.3,0,0.6,0,0.6-0.4c0-0.3-0.3-0.4-0.5-0.4l-0.5,0L178.8,30.5z M164.5,15.2
		c-0.4,0-0.7,0.1-0.7,0.6l0,2.5c0,0.4,0.3,0.7,0.7,0.7l4.2,0l0,12.7c0,0.6,0.3,0.9,0.9,0.9l2.5,0c0.6,0,0.9-0.2,0.9-0.9l0-12.7
		l4.2,0c0.4,0,0.7-0.2,0.7-0.7l0-2.5c0-0.5-0.3-0.6-0.7-0.6L164.5,15.2z M173.5,10.3c0-1.5-1.2-2.6-2.6-2.6c-1.5,0-2.6,1.2-2.6,2.6
		c0,1.5,1.2,2.6,2.6,2.6C172.3,12.9,173.5,11.7,173.5,10.3z M156.4,31.7c0,0.6,0.3,0.9,0.9,0.9l2.5,0c0.6,0,0.9-0.2,0.9-0.9l0-15.8
		c0-0.5-0.3-0.7-0.7-0.7l-3,0c-0.4,0-0.7,0.3-0.7,0.7L156.4,31.7z M151,32.6l-2.3,0c-0.5,0-0.8-0.2-0.9-0.7l0-0.9
		c-1.7,1.3-3.6,2.1-5.7,2.1c-4,0-5.7-2.5-5.7-6.4l0-10.6c0-0.6,0.4-0.8,0.9-0.8l2.5,0c0.6,0,0.9,0.2,0.9,0.8l0,9.9
		c0,2,0.5,3.3,2.7,3.3c1.4,0,3.1-0.8,4.2-1.7l0-11.5c0-0.6,0.3-0.8,0.9-0.8l2.5,0c0.6,0,0.9,0.2,0.9,0.8l0,15.6
		C151.9,32.4,151.7,32.6,151,32.6z M119.9,15.2c-0.4,0-0.7,0.1-0.7,0.6l0,2.5c0,0.4,0.3,0.7,0.7,0.7l4.2,0l0,12.7
		c0,0.6,0.3,0.9,0.9,0.9l2.5,0c0.7,0,0.9-0.2,0.9-0.9l0-12.7l4.2,0c0.4,0,0.7-0.2,0.7-0.7l0-2.5c0-0.5-0.3-0.6-0.7-0.6L119.9,15.2z
		 M128.9,10.3c0-1.5-1.2-2.6-2.6-2.6c-1.5,0-2.6,1.2-2.6,2.6c0,1.5,1.2,2.6,2.6,2.6C127.8,12.9,128.9,11.8,128.9,10.3z M116.1,32.7
		l-2.6,0c-0.6,0-0.9-0.3-0.9-0.9l0-9.8c0-2-0.5-3.4-2.7-3.4c-1.4,0-3.1,0.8-4.2,1.7l0,11.5c0,0.6-0.2,0.9-0.9,0.9l-2.6,0
		c-0.5,0-0.9-0.3-0.9-0.9l0-15.7c0-0.6,0.3-0.9,0.9-0.9l2.3,0c0.5,0,0.8,0.1,0.9,0.7l0,1c1.7-1.3,3.7-2.1,5.8-2.1
		c4,0,5.7,2.5,5.7,6.4l0,10.5C117,32.3,116.8,32.7,116.1,32.7z M92.5,31.8c0,0.6,0.3,0.9,0.9,0.9l2.5,0c0.6,0,0.9-0.2,0.9-0.9
		l0-15.8c0-0.5-0.3-0.7-0.7-0.7l-3,0c-0.4,0-0.6,0.3-0.6,0.7L92.5,31.8z"/>
	<path fill="#264B6E" d="M82.1,26.6c-0.3-1.2-0.9-2.3-1.8-3.1c-2.4-2.3-5.5-5-6.7-5.2c-0.6-0.2-4.4,0.8-6.4-0.3
		c-6.1-2.9-9.8-2.5-14.5-2.9C48,14.8,41.8,16.9,39.3,18c-3.4,1.7-8.5-2.6-12-1.8c-3.5,0.8-5.5,5.3-7.9,7.7c-2.1,2.4-5.6,4.3-7,6.2
		c0,0,0,0,0,0.1c-0.3,4,6.3,7.5,8.7,7.9c0.1,0,0.1,0.2,0,0.2c-3.1,1-5.1,3.4-6.6,7.8c-5.6,17.1,12.2,43,37,43.1
		c10.9,0,16.9-6.4,16.4-15.7c0-0.3-0.4-0.4-0.6-0.1c-2.1,2.6-4.2,4.2-7.1,5.6c-0.1,0.1-0.2-0.1-0.1-0.2c4.1-2.6,7.1-5.9,9.6-9.6
		c0.2-0.3,0-0.7-0.3-0.8c-1-0.2-1.9-0.6-2.5-0.9c-0.1-0.1,0-0.2,0.1-0.2c0.9,0.2,2.6,0.5,3.6,0.3c0.7-0.1,1.3-0.2,1.8-0.3
		c1.6-0.4,3.2-1,4.2-2.3c0-0.1,0.1,0,0.2,0c1.4,1,2.1,1.4,4.3,1.2c2.5-0.3,3.2-3.9,0.8-5.7c-2.9-2.2-0.4-6.4-1.3-13.4
		c-0.4-3-1.5-6.4-2.7-9.2c0-0.1-0.2-0.6-0.1-0.6c2,0.6,5.1,3.2,6,1.1C84.5,36.4,82.9,29.8,82.1,26.6z M43.2,79.9
		c-5.9,0.2-13.7-2.9-18.1-9c-6.1-8.4-6.9-17.2-7-20.7c0-0.8,0.2-1.8,0.6-2.5c0,0,0,0,0,0c1-1.3,1.4-0.6,1.8,1.4c0,0.2,0.3,0.2,0.4,0
		c0.7-1.8,1.9-4.1,3.2-5.6c0.2-0.2,0.5,0,0.5,0.2c-1.3,4.2-3.2,9.5,0.6,17.4c0,0,0,0,0,0c2.9,4.5,5.1,7.5,10,8.6
		c5.1,1.5,2.9,3.4,2.5,3.6c-1.4,1-2.7,0.8-4.1,0.4c-0.3-0.1-0.5,0.2-0.3,0.4c1.5,2.3,6.7,4.6,10,5.5C43.3,79.7,43.3,79.9,43.2,79.9z
		 M69.2,42c-0.9-0.4-2.6-0.9-4.6-0.2c-1,0.4-2.3,1.2-3.1,1.9c-0.1,0.1-0.2-0.1-0.2-0.2c1.2-1.4,1.8-2.9,4.1-3.2
		c1.7-0.3,3.2,0.8,3.9,1.5C69.4,41.9,69.3,42.1,69.2,42z M79.6,47.3c0,0.1-0.1,0.2-0.2,0.1c-3.4-6.5-6.7-9.4-13.5-9.6
		c-1.1,0-0.9-1-0.5-1.1c2.1-0.5,2.5-2.4,2.6-3.5c0-0.2-0.1-0.4-0.2-0.4c-3.5-1.3-7.9-1.5-11,0.6c-0.2,0.1-0.3,0.4-0.2,0.6
		c0.6,0.9,3.2,3,6.9,3c0.8,0,1,1.1,0,1.2c-2.2,0.3-5.9,2.3-7.8,4.8c-4,5.3-1.6,10.4-5.5,13.4c-3,2.3-4.6,1.4-5.3,4
		c-0.4,1.2,0.6,2.5,1.8,3c0.9,0.4,3.5,0.6,4.6,0.6c0.1,0,0.1,0.2,0,0.2c-1.2,0.4-3.8,0.9-6,0.2c-3.3-1.1-6.9-5-6.2-11.1
		c1.4-11.9,9.5-19.8,19.4-23.3c0.1,0,0.1-0.1,0-0.2c-2.2-2.2-4.6-5.2-8.5-5.1c-3.4,0.1-7.6,3.1-11,10.6c0,0.1-0.1,0.1-0.2,0
		c-0.5-0.8-0.3-5.9,3.5-10.3c0.2-0.3,2.4-3.6-0.2-3.8c-0.1,0-0.1-0.1-0.1-0.2c0.5-0.6,1.5-1.2,2.1-1.5c0.1-0.1,0-0.2-0.1-0.2
		c-2.9,0.6-6.3,2.9-9,5.7c-0.1,0.1-0.2,0-0.2-0.1c2.5-3.6,5.2-6.2,13.6-8.7c4.9-1.2,10.1,0.5,14.3,3.3c0.1,0.1,0,0.2-0.1,0.2
		c-2.4-0.6-4.5-0.9-5-0.1c-0.7,1.3,1.8,2.6,7.2,3.3c2.6,0.4,4.9,1.9,6.3,5.3c0,0.1-0.1,0.2-0.2,0.1c-1.7-2.2-3.4-3.2-6-3.2
		c-1.9,0-3,2.2-3.4,4.2c0,0.1,0,0.1,0.1,0.1C74.8,31.3,78.3,39.1,79.6,47.3z M45.6,31.4c0.1,0,0.1,0,0.2,0.1
		c0.4,0.6,2.1,0.9,3.9,0.6c0.7-0.1,1.4-0.3,1.9-0.6c0,0,0.1,0.1,0,0.1c-0.7,0.7-1.8,1.4-3.3,1.7c-2,0.4-3.8,0.3-4-0.5
		C44.3,32.4,44.8,31.8,45.6,31.4z M71,30.2c-0.1,0.3-0.5,0.4-1.3,0.2c-0.9-0.1-1.4-0.4-1.8-0.7c0,0,0,0,0,0c0.2,0.1,0.5,0.2,0.8,0.2
		c0.8,0.1,1.5,0,1.7-0.2c0,0,0.1,0,0.1,0C70.8,29.8,71,30,71,30.2z"/>
</g>
</svg>
